# xmcd
#
# Track frame offsets: 
#        150
#        9885
#        26335
#        38950
#        61430
#        78405
#        82445
#        92140
#        103685
#        114030
#        125850
#        134750
#        145325
#        148215
#        161925
#        171385
#        179385
#        184035
#        195400
#        208390
#        212515
#        221380
#        231055
#        240475
#        256310
#        270290
#
# Disc length: 3738 seconds
#
# Revision: 0
# Processed by: cddbd v1.4PL0 Copyright (c) Steve Scherf et al.
# Submitted via: ExactAudioCopy v0.90b3
#
DISCID=800e981a
DTITLE=Various Artist - The Bottle Let Me Down
DYEAR=2002
DGENRE=Alt. Country
TTITLE0=Rosie Flores - Red, Red Robin
TTITLE1=Kelly Hogan - Senor Don Gato
TTITLE2=One Riot One Ranger - Hinky Dinky Dee
TTITLE3=Alejandro Escovedo - Sad and Dreamy
TTITLE4=Robbie Fulks - Godfrey
TTITLE5=Various Artist - Camptown Races
TTITLE6=Jim and Jennie And The Pinetops - Down In The Arkansas
TTITLE7=The Cornell Hurd Band - Don't Wipe Your Face On Your Shirt
TTITLE8=The Handsome Family - Snowball
TTITLE9=Jane Baxter Miller - On Top Of Spaghetti
TTITLE10=Asylum Street Spankers - I Am My Own Grandpa
TTITLE11=Rex Hobart and The Misery Boys - It's Not Easy Being Green
TTITLE12=Various Artist - Cartoon Chicken
TTITLE13=Carolyn Mark - The Three Billy Goats Gruff
TTITLE14=Jon Rauhouse and Andy Hopkins - Three Little Fishes
TTITLE15=Chris Ligon - Crazy Dazy
TTITLE16=Split Lip Rayfield - The Weasel, The Bean, The Frog, and The Do
TTITLE16=g
TTITLE17=Waco Brothers - The Fox
TTITLE18=Nora O'Connor and Steve Frisbie - Cheese, Peas, Pickles and Banan
TTITLE18=as
TTITLE19=Various Artist - Turkey In The Straw
TTITLE20=Devil In A Woodpile - Funky Butt
TTITLE21=The Meat Purveyors - The Crawdad Song
TTITLE22=Kim Lenz - Down On The Farm
TTITLE23=Freakwater - Little Red Riding Hood
TTITLE24=Kelly Hogan - Rubber Duckie
TTITLE25=Trailer Bride - Lullaby
EXTD=
EXTT0=
EXTT1=
EXTT2=
EXTT3=
EXTT4=
EXTT5=
EXTT6=
EXTT7=
EXTT8=
EXTT9=
EXTT10=
EXTT11=
EXTT12=
EXTT13=
EXTT14=
EXTT15=
EXTT16=
EXTT17=
EXTT18=
EXTT19=
EXTT20=
EXTT21=
EXTT22=
EXTT23=
EXTT24=
EXTT25=
PLAYORDER=
